# CC0 1.0 public domain. Generated by examples/crate/make_crate_assets.py.
# Unit cube, 1 m tall, base on Z=0, six UV islands in a 3x2 grid.
mtllib crate.mtl
o Crate
v -0.500000 -0.500000 0.000000
v 0.500000 -0.500000 0.000000
v 0.500000 0.500000 0.000000
v -0.500000 0.500000 0.000000
v -0.500000 -0.500000 1.000000
v 0.500000 -0.500000 1.000000
v 0.500000 0.500000 1.000000
v -0.500000 0.500000 1.000000
vt 0.000000 0.000000
vt 0.333333 0.000000
vt 0.333333 0.500000
vt 0.000000 0.500000
vt 0.333333 0.000000
vt 0.666667 0.000000
vt 0.666667 0.500000
vt 0.333333 0.500000
vt 0.666667 0.000000
vt 1.000000 0.000000
vt 1.000000 0.500000
vt 0.666667 0.500000
vt 0.000000 0.500000
vt 0.333333 0.500000
vt 0.333333 1.000000
vt 0.000000 1.000000
vt 0.333333 0.500000
vt 0.666667 0.500000
vt 0.666667 1.000000
vt 0.333333 1.000000
vt 0.666667 0.500000
vt 1.000000 0.500000
vt 1.000000 1.000000
vt 0.666667 1.000000
vn 0.000000 -1.000000 0.000000
vn 1.000000 0.000000 0.000000
vn 0.000000 1.000000 0.000000
vn -1.000000 0.000000 0.000000
vn 0.000000 0.000000 1.000000
vn 0.000000 0.000000 -1.000000
usemtl MAT-Crate
s off
f 1/1/1 2/2/1 6/3/1 5/4/1
f 2/5/2 3/6/2 7/7/2 6/8/2
f 3/9/3 4/10/3 8/11/3 7/12/3
f 4/13/4 1/14/4 5/15/4 8/16/4
f 5/17/5 6/18/5 7/19/5 8/20/5
f 4/21/6 3/22/6 2/23/6 1/24/6
